<?xml version="1.0"?>
<svg xmlns="http://www.w3.org/2000/svg" viewBox="0 0 512 512"  width="256" height="256"><g id="Outline"><path style="fill:#c44e41;" d="M423.107,44.726C378.341,26.2,318.994,16,256,16S133.659,26.2,88.893,44.726C41.887,64.176,16,90.909,16,120a50.176,50.176,0,0,0,3.8,18.993c5.154,12.727,15.445,24.675,30.587,35.513a7.961,7.961,0,0,0,2.712,1.231l82.078,117.772-.2.2a16.046,16.046,0,0,0-2,20.19l37.241,55.85A31.918,31.918,0,0,0,196.84,384h1.406L200,386.515V400H175.49a23.927,23.927,0,0,0-18.435,8.639l-31.142,37.37-3.045-1.525a19.388,19.388,0,0,0-8.628-2.034,19.3,19.3,0,0,0-9.936,35.86l27.58,16.549a8,8,0,0,0,9.773-1.2l10.583-10.583,19.644,11.786a8,8,0,0,0,9.773-1.2l15.895-15.894,7.58-6.958A23.963,23.963,0,0,0,224,480h72a32.036,32.036,0,0,0,32-32V381.31a31.826,31.826,0,0,0,13.776-11.562l24.88-37.31.007-.01L379.019,313.9a16.04,16.04,0,0,0-1.83-20l71.128-101.073-13.084-9.209-54.988,78.139,17.873-113.2c21.557,7.1,40.056,15.852,54.186,25.957a8,8,0,0,0,9.309,0c15.142-10.838,25.433-22.786,30.581-35.5A50.2,50.2,0,0,0,496,120C496,90.909,470.113,64.176,423.107,44.726ZM95.01,59.51C137.882,41.77,195.056,32,256,32s118.118,9.77,160.99,27.51c35.642,14.748,57.738,33.837,62.169,53.278C464.577,96.68,440.9,82.612,409.253,71.427,366.507,56.32,312.08,48,256,48S145.493,56.32,102.747,71.427C71.1,82.612,47.423,96.68,32.841,112.788,37.272,93.347,59.368,74.259,95.01,59.51Zm13.069,27A370.078,370.078,0,0,1,168,71.287V119.06c-10.85,1.807-21.4,3.939-31.529,6.41-11.46,2.795-22.308,6-32.471,9.542V87.992Q106.018,87.245,108.079,86.513ZM184,68.816a529.327,529.327,0,0,1,64-4.753v47.994a547.017,547.017,0,0,0-64,4.612Zm80-4.753a529.327,529.327,0,0,1,64,4.753v47.853a547.017,547.017,0,0,0-64-4.612Zm80,7.224a370.091,370.091,0,0,1,59.922,15.226q2.065.73,4.078,1.479v47.02c-10.163-3.545-21.012-6.747-32.471-9.542C365.4,123,354.85,120.867,344,119.06ZM36,136c7.6-15.225,25.656-29.563,52-41.462v46.59a202.545,202.545,0,0,0-32.739,17.032C46.258,151.044,39.8,143.618,36,136ZM153.243,315.443l-6.949-10.423,12.463-12.463,6.949,10.423ZM312,392v8H216v-8Zm-57.376,24h24A24.039,24.039,0,0,1,256,432v-8A23.889,23.889,0,0,0,254.624,416Zm-85.277,2.88A7.975,7.975,0,0,1,175.49,416h15.429l-25.008,30.011-3.045-1.523h0a19.263,19.263,0,0,0-13.74-1.342ZM134.76,477.926l-22.229-13.338a3.306,3.306,0,0,1-.634-5.171,3.32,3.32,0,0,1,3.812-.624l8.266,4.139,6.147,4.1,7.947,5.3c.3.457.622.9.959,1.326Zm40,0L152.532,464.59a3.3,3.3,0,0,1-.636-5.171,3.3,3.3,0,0,1,3.814-.62l8.267,4.134,15.466,10.31Zm5.085-23.645,29.5-35.4A7.975,7.975,0,0,1,215.49,416H232a8.009,8.009,0,0,1,8,8v8H224a23.774,23.774,0,0,0-2.84.166c-.085.008-.17.018-.254.028a23.926,23.926,0,0,0-20.769,21.479l-8.922,8.189ZM296,464H224a8.02,8.02,0,0,1-8-7.968c0-.08.007-.16.009-.239a7.965,7.965,0,0,1,2.326-5.455,7.873,7.873,0,0,1,4.44-2.251c.08-.008.16-.018.239-.028A7.51,7.51,0,0,1,224,448h64a8,8,0,0,0,8-8V416h16v32A16.019,16.019,0,0,1,296,464Zm32.464-103.128a15.926,15.926,0,0,1-10.054,6.8,16.354,16.354,0,0,1-3.25.331H296a8,8,0,0,0-7.763,6.065L287.754,376H224.246l-.485-1.94A8,8,0,0,0,216,368H196.84a15.952,15.952,0,0,1-13.3-7.129l-21.241-31.852L174.412,316.9l18.728,31.214A8,8,0,0,0,200,352h34.868a31.91,31.91,0,0,0,42.264,0H312a8,8,0,0,0,6.86-3.884L337.588,316.9l12.117,12.117ZM240,320h32v8a16,16,0,0,1-32,0Zm0-16a16,16,0,0,1,32,0Zm125.706,1.02-6.949,10.423L346.294,302.98l6.949-10.422Zm-4.35-26.237a15.969,15.969,0,0,0-21.425,4.9l-10.587,15.88c-.042.064-.077.13-.117.194-.028.044-.06.083-.087.128L307.471,336H286.987A31.94,31.94,0,0,0,288,328V304a32,32,0,0,0-64,0v24a31.94,31.94,0,0,0,1.013,8H204.529l-32.46-52.319a15.968,15.968,0,0,0-21.425-4.9L131.621,158.305l-15.805,2.5,15.708,99.484-63.576-91.22C109.605,143.585,180.286,128,256,128c45.839,0,89.829,5.716,126.657,15.877Zm95.383-120.624A202.5,202.5,0,0,0,424,141.127V94.537c26.347,11.9,44.4,26.237,52,41.463C472.2,143.613,465.746,151.041,456.739,158.159Z"/></g></svg>
